<svg width="500" height="300" viewBox="0 0 500 300" fill="none" xmlns="http://www.w3.org/2000/svg">
<g clip-path="url(#clip0_14_8)">
<g filter="url(#filter0_di_14_8)">
<path d="M38.48 71C42.96 71 46.8267 71.8 50.08 73.4C53.3867 75 55.92 77.24 57.68 80.12C59.4933 82.9467 60.4 86.2267 60.4 89.96C60.4 93.6933 59.4933 97 57.68 99.88C55.92 102.707 53.3867 104.92 50.08 106.52C46.8267 108.12 42.96 108.92 38.48 108.92H11.52V99.8H38.08C41.7067 99.8 44.5333 98.92 46.56 97.16C48.64 95.4 49.68 93 49.68 89.96C49.68 86.92 48.64 84.52 46.56 82.76C44.5333 81 41.7067 80.12 38.08 80.12H12.56L17.28 74.84V131H6.72V71H38.48ZM67.8638 69.4H78.2638V131H67.8638V69.4ZM96.2638 84.6C100.53 84.6 104.157 85.4533 107.144 87.16C110.13 88.8667 112.397 91.32 113.944 94.52C115.544 97.6667 116.344 101.48 116.344 105.96V131H105.944V107.64C105.944 102.893 104.824 99.32 102.584 96.92C100.397 94.4667 97.1704 93.24 92.9038 93.24C89.9704 93.24 87.3838 93.9067 85.1438 95.24C82.9571 96.52 81.2504 98.3333 80.0238 100.68C78.8504 103.027 78.2638 105.773 78.2638 108.92L74.5838 106.92C75.0638 102.227 76.2904 98.2267 78.2638 94.92C80.2371 91.6133 82.7704 89.08 85.8637 87.32C88.9571 85.5067 92.4238 84.6 96.2638 84.6ZM151.81 132.12C146.317 132.12 141.49 131.133 137.33 129.16C133.223 127.133 129.997 124.333 127.65 120.76C125.357 117.187 124.21 113.053 124.21 108.36C124.21 103.613 125.357 99.48 127.65 95.96C129.997 92.3867 133.223 89.6133 137.33 87.64C141.49 85.6133 146.317 84.6 151.81 84.6C157.303 84.6 162.103 85.6133 166.21 87.64C170.37 89.6133 173.597 92.3867 175.89 95.96C178.237 99.48 179.41 103.613 179.41 108.36C179.41 113.053 178.237 117.187 175.89 120.76C173.597 124.333 170.37 127.133 166.21 129.16C162.103 131.133 157.303 132.12 151.81 132.12ZM151.81 123.96C155.33 123.96 158.343 123.32 160.85 122.04C163.41 120.76 165.383 118.973 166.77 116.68C168.157 114.333 168.85 111.56 168.85 108.36C168.85 105.16 168.157 102.413 166.77 100.12C165.383 97.7733 163.41 95.96 160.85 94.68C158.343 93.4 155.33 92.76 151.81 92.76C148.343 92.76 145.33 93.4 142.77 94.68C140.21 95.96 138.237 97.7733 136.85 100.12C135.463 102.413 134.77 105.16 134.77 108.36C134.77 111.56 135.463 114.333 136.85 116.68C138.237 118.973 140.21 120.76 142.77 122.04C145.33 123.32 148.343 123.96 151.81 123.96ZM185.704 85.72H196.104L198.824 102.04V131H188.424V100.52L185.704 85.72ZM216.824 84.6C221.09 84.6 224.717 85.4533 227.704 87.16C230.69 88.8667 232.957 91.32 234.504 94.52C236.104 97.6667 236.904 101.48 236.904 105.96V131H226.504V107.64C226.504 102.893 225.384 99.32 223.144 96.92C220.957 94.4667 217.73 93.24 213.464 93.24C210.53 93.24 207.944 93.9067 205.704 95.24C203.517 96.52 201.81 98.3333 200.584 100.68C199.41 103.027 198.824 105.773 198.824 108.92L195.144 106.92C195.624 102.227 196.85 98.2267 198.824 94.92C200.797 91.6133 203.33 89.08 206.424 87.32C209.517 85.5067 212.984 84.6 216.824 84.6ZM272.037 132.12C266.757 132.12 262.064 131.133 257.957 129.16C253.85 127.133 250.624 124.333 248.277 120.76C245.93 117.187 244.757 113.027 244.757 108.28C244.757 103.587 245.85 99.48 248.037 95.96C250.277 92.3867 253.344 89.6133 257.237 87.64C261.184 85.6133 265.69 84.6 270.757 84.6C275.824 84.6 280.197 85.7467 283.877 88.04C287.61 90.28 290.49 93.4533 292.517 97.56C294.544 101.667 295.557 106.493 295.557 112.04H252.917V104.12H290.357L285.157 107.08C284.997 104.093 284.277 101.533 282.997 99.4C281.77 97.2667 280.09 95.64 277.957 94.52C275.877 93.3467 273.397 92.76 270.517 92.76C267.477 92.76 264.81 93.3733 262.517 94.6C260.277 95.8267 258.517 97.56 257.237 99.8C255.957 101.987 255.317 104.6 255.317 107.64C255.317 111 256.064 113.907 257.557 116.36C259.104 118.813 261.264 120.707 264.037 122.04C266.864 123.32 270.197 123.96 274.037 123.96C277.504 123.96 281.05 123.427 284.677 122.36C288.304 121.24 291.504 119.693 294.277 117.72V125.24C291.504 127.373 288.117 129.053 284.117 130.28C280.17 131.507 276.144 132.12 272.037 132.12ZM66.8 203.92C66.7467 207.653 66.0267 211.173 64.64 214.48C63.2533 217.733 61.28 220.613 58.72 223.12C56.16 225.627 53.04 227.6 49.36 229.04C45.7333 230.427 41.5733 231.12 36.88 231.12C32.1333 231.12 27.7333 230.4 23.68 228.96C19.6267 227.52 16.08 225.467 13.04 222.8C10.0533 220.08 7.73333 216.8 6.08 212.96C4.42667 209.12 3.6 204.8 3.6 200C3.6 195.2 4.42667 190.88 6.08 187.04C7.78667 183.2 10.16 179.947 13.2 177.28C16.24 174.56 19.8133 172.48 23.92 171.04C28.0267 169.6 32.5333 168.88 37.44 168.88C43.5733 168.88 48.9333 169.893 53.52 171.92C58.16 173.893 61.8933 176.613 64.72 180.08C67.5467 183.547 69.28 187.52 69.92 192H59.2C58.6133 189.173 57.3333 186.72 55.36 184.64C53.44 182.56 50.96 180.96 47.92 179.84C44.88 178.72 41.36 178.16 37.36 178.16C32.6667 178.16 28.5867 179.04 25.12 180.8C21.7067 182.507 19.04 184.987 17.12 188.24C15.2533 191.493 14.32 195.413 14.32 200C14.32 204.587 15.28 208.533 17.2 211.84C19.1733 215.147 21.9467 217.68 25.52 219.44C29.0933 221.2 33.3067 222.08 38.16 222.08C42.8533 222.08 46.96 221.28 50.48 219.68C54 218.08 56.7733 215.867 58.8 213.04C60.8267 210.16 61.92 206.827 62.08 203.04L66.8 203.92ZM40.24 208.48V200.48H70.56V230H62.72L61.44 205.12L63.92 208.48H40.24ZM100.183 231.12C96.0231 231.12 92.4765 230.267 89.5431 228.56C86.6631 226.853 84.4498 224.4 82.9031 221.2C81.3565 218 80.5831 214.187 80.5831 209.76V184.72H90.9831V208.16C90.9831 212.853 92.0498 216.427 94.1831 218.88C96.3698 221.28 99.4898 222.48 103.543 222.48C106.476 222.48 108.983 221.84 111.063 220.56C113.196 219.28 114.85 217.467 116.023 215.12C117.196 212.72 117.783 209.947 117.783 206.8L121.383 208.8C120.956 213.44 119.783 217.44 117.863 220.8C115.943 224.107 113.463 226.667 110.423 228.48C107.383 230.24 103.97 231.12 100.183 231.12ZM120.423 230L117.783 213.68V184.72H128.183V215.28L130.823 230H120.423ZM164.537 231.12C159.257 231.12 154.564 230.133 150.457 228.16C146.35 226.133 143.124 223.333 140.777 219.76C138.43 216.187 137.257 212.027 137.257 207.28C137.257 202.587 138.35 198.48 140.537 194.96C142.777 191.387 145.844 188.613 149.737 186.64C153.684 184.613 158.19 183.6 163.257 183.6C168.324 183.6 172.697 184.747 176.377 187.04C180.11 189.28 182.99 192.453 185.017 196.56C187.044 200.667 188.057 205.493 188.057 211.04H145.417V203.12H182.857L177.657 206.08C177.497 203.093 176.777 200.533 175.497 198.4C174.27 196.267 172.59 194.64 170.457 193.52C168.377 192.347 165.897 191.76 163.017 191.76C159.977 191.76 157.31 192.373 155.017 193.6C152.777 194.827 151.017 196.56 149.737 198.8C148.457 200.987 147.817 203.6 147.817 206.64C147.817 210 148.564 212.907 150.057 215.36C151.604 217.813 153.764 219.707 156.537 221.04C159.364 222.32 162.697 222.96 166.537 222.96C170.004 222.96 173.55 222.427 177.177 221.36C180.804 220.24 184.004 218.693 186.777 216.72V224.24C184.004 226.373 180.617 228.053 176.617 229.28C172.67 230.507 168.644 231.12 164.537 231.12ZM243.494 216.24C243.494 219.28 242.64 221.92 240.934 224.16C239.227 226.4 236.64 228.133 233.174 229.36C229.707 230.533 225.36 231.12 220.134 231.12C214.747 231.12 210.08 230.453 206.134 229.12C202.187 227.733 199.12 225.813 196.934 223.36C194.8 220.853 193.654 217.973 193.494 214.72H204.054C204.374 216.427 205.227 217.947 206.614 219.28C208.054 220.56 209.92 221.547 212.214 222.24C214.56 222.933 217.227 223.28 220.214 223.28C224.534 223.28 227.787 222.773 229.974 221.76C232.16 220.693 233.254 219.093 233.254 216.96C233.254 215.52 232.507 214.427 231.014 213.68C229.574 212.933 226.827 212.373 222.774 212L213.894 211.2C209.094 210.773 205.307 209.92 202.534 208.64C199.76 207.307 197.787 205.707 196.614 203.84C195.44 201.92 194.854 199.893 194.854 197.76C194.854 194.667 195.814 192.08 197.734 190C199.654 187.92 202.32 186.347 205.734 185.28C209.147 184.16 213.12 183.6 217.654 183.6C222.347 183.6 226.534 184.267 230.214 185.6C233.894 186.88 236.827 188.693 239.014 191.04C241.2 193.333 242.427 196 242.694 199.04H232.134C231.92 197.813 231.28 196.64 230.214 195.52C229.2 194.347 227.627 193.387 225.494 192.64C223.414 191.84 220.614 191.44 217.094 191.44C213.36 191.44 210.427 191.92 208.294 192.88C206.214 193.84 205.174 195.253 205.174 197.12C205.174 198.293 205.814 199.307 207.094 200.16C208.374 200.96 210.747 201.52 214.214 201.84L225.654 202.88C230.24 203.307 233.814 204.133 236.374 205.36C238.987 206.533 240.827 208.053 241.894 209.92C242.96 211.787 243.494 213.893 243.494 216.24ZM298.806 216.24C298.806 219.28 297.953 221.92 296.246 224.16C294.54 226.4 291.953 228.133 288.486 229.36C285.02 230.533 280.673 231.12 275.446 231.12C270.06 231.12 265.393 230.453 261.446 229.12C257.5 227.733 254.433 225.813 252.246 223.36C250.113 220.853 248.966 217.973 248.806 214.72H259.366C259.686 216.427 260.54 217.947 261.926 219.28C263.366 220.56 265.233 221.547 267.526 222.24C269.873 222.933 272.54 223.28 275.526 223.28C279.846 223.28 283.1 222.773 285.286 221.76C287.473 220.693 288.566 219.093 288.566 216.96C288.566 215.52 287.82 214.427 286.326 213.68C284.886 212.933 282.14 212.373 278.086 212L269.206 211.2C264.406 210.773 260.62 209.92 257.846 208.64C255.073 207.307 253.1 205.707 251.926 203.84C250.753 201.92 250.166 199.893 250.166 197.76C250.166 194.667 251.126 192.08 253.046 190C254.966 187.92 257.633 186.347 261.046 185.28C264.46 184.16 268.433 183.6 272.966 183.6C277.66 183.6 281.846 184.267 285.526 185.6C289.206 186.88 292.14 188.693 294.326 191.04C296.513 193.333 297.74 196 298.006 199.04H287.446C287.233 197.813 286.593 196.64 285.526 195.52C284.513 194.347 282.94 193.387 280.806 192.64C278.726 191.84 275.926 191.44 272.406 191.44C268.673 191.44 265.74 191.92 263.606 192.88C261.526 193.84 260.486 195.253 260.486 197.12C260.486 198.293 261.126 199.307 262.406 200.16C263.686 200.96 266.06 201.52 269.526 201.84L280.966 202.88C285.553 203.307 289.126 204.133 291.686 205.36C294.3 206.533 296.14 208.053 297.206 209.92C298.273 211.787 298.806 213.893 298.806 216.24ZM305.079 184.72H315.479L318.199 201.2V230H307.799V199.2L305.079 184.72ZM341.159 184.4V193.52C339.985 193.2 338.705 192.96 337.319 192.8C335.932 192.64 334.625 192.56 333.399 192.56C330.465 192.56 327.852 193.2 325.559 194.48C323.265 195.76 321.452 197.68 320.119 200.24C318.839 202.747 318.199 205.84 318.199 209.52L315.799 206.56C316.012 203.36 316.545 200.373 317.399 197.6C318.305 194.773 319.532 192.32 321.079 190.24C322.679 188.16 324.625 186.533 326.919 185.36C329.212 184.187 331.879 183.6 334.919 183.6C335.985 183.6 337.079 183.68 338.199 183.84C339.319 183.947 340.305 184.133 341.159 184.4Z" fill="black"/>
</g>
<g filter="url(#filter1_d_14_8)">
<g filter="url(#filter2_d_14_8)">
<rect x="280" y="82.1214" width="132" height="223" rx="20" transform="rotate(-27.5835 280 82.1214)" fill="#242424"/>
</g>
<g filter="url(#filter3_i_14_8)">
<rect x="285" y="83.2771" width="123.698" height="215.181" rx="20" transform="rotate(-27.5835 285 83.2771)" fill="#0088FF"/>
</g>
<rect x="285.675" y="83.4887" width="122.698" height="214.181" rx="19.5" transform="rotate(-27.5835 285.675 83.4887)" stroke="black"/>
<g filter="url(#filter4_ddi_14_8)">
<path d="M388.565 169.967C386.389 165.802 385.668 161.722 386.402 157.728C387.09 153.645 389.134 149.136 392.535 144.2L399.792 133.471C401.752 130.528 403.042 127.598 403.661 124.68C404.234 121.673 403.872 118.928 402.575 116.447C399.982 111.483 395.883 108.604 390.278 107.809C384.761 106.968 378.458 108.399 371.367 112.104C364.365 115.762 359.505 120.388 356.786 125.983C354.022 131.489 353.766 137.263 356.021 143.306L339.269 152.058C334.742 141.448 334.63 131.409 338.935 121.939C343.282 112.335 351.615 104.314 363.935 97.878C376.344 91.3954 387.371 88.963 397.016 90.5807C406.75 92.152 414.025 97.5466 418.841 106.765C421.156 111.196 422.003 116.057 421.381 121.346C420.76 126.635 418.617 131.928 414.954 137.227L407.172 148.569C405.342 151.33 404.135 153.879 403.551 156.215C403.008 158.417 403.362 160.714 404.612 163.107L406.835 167.361L392.078 175.071C391.302 174.235 390.639 173.397 390.087 172.557C389.535 171.717 389.028 170.854 388.565 169.967ZM415.029 201.835C411.927 203.456 408.871 203.868 405.86 203.072C402.802 202.187 400.487 200.238 398.912 197.224C397.338 194.211 397.084 191.241 398.15 188.314C399.17 185.3 401.231 182.982 404.333 181.361C407.524 179.694 410.604 179.326 413.572 180.258C416.583 181.054 418.876 182.959 420.45 185.972C422.025 188.986 422.302 192 421.282 195.015C420.304 197.895 418.22 200.169 415.029 201.835Z" fill="white"/>
</g>
</g>
</g>
<defs>
<filter id="filter0_di_14_8" x="0.6" y="66.4" width="347.559" height="171.72" filterUnits="userSpaceOnUse" color-interpolation-filters="sRGB">
<feFlood flood-opacity="0" result="BackgroundImageFix"/>
<feColorMatrix in="SourceAlpha" type="matrix" values="0 0 0 0 0 0 0 0 0 0 0 0 0 0 0 0 0 0 127 0" result="hardAlpha"/>
<feOffset dx="2" dy="2"/>
<feGaussianBlur stdDeviation="2.5"/>
<feComposite in2="hardAlpha" operator="out"/>
<feColorMatrix type="matrix" values="0 0 0 0 0 0 0 0 0 0 0 0 0 0 0 0 0 0 0.25 0"/>
<feBlend mode="normal" in2="BackgroundImageFix" result="effect1_dropShadow_14_8"/>
<feBlend mode="normal" in="SourceGraphic" in2="effect1_dropShadow_14_8" result="shape"/>
<feColorMatrix in="SourceAlpha" type="matrix" values="0 0 0 0 0 0 0 0 0 0 0 0 0 0 0 0 0 0 127 0" result="hardAlpha"/>
<feOffset dy="4"/>
<feGaussianBlur stdDeviation="2"/>
<feComposite in2="hardAlpha" operator="arithmetic" k2="-1" k3="1"/>
<feColorMatrix type="matrix" values="0 0 0 0 0 0 0 0 0 0 0 0 0 0 0 0 0 0 0.25 0"/>
<feBlend mode="normal" in2="shape" result="effect2_innerShadow_14_8"/>
</filter>
<filter id="filter1_d_14_8" x="282.983" y="27.9835" width="214.288" height="252.808" filterUnits="userSpaceOnUse" color-interpolation-filters="sRGB">
<feFlood flood-opacity="0" result="BackgroundImageFix"/>
<feColorMatrix in="SourceAlpha" type="matrix" values="0 0 0 0 0 0 0 0 0 0 0 0 0 0 0 0 0 0 127 0" result="hardAlpha"/>
<feOffset dy="4"/>
<feGaussianBlur stdDeviation="2"/>
<feComposite in2="hardAlpha" operator="out"/>
<feColorMatrix type="matrix" values="0 0 0 0 0 0 0 0 0 0 0 0 0 0 0 0 0 0 0.25 0"/>
<feBlend mode="normal" in2="BackgroundImageFix" result="effect1_dropShadow_14_8"/>
<feBlend mode="normal" in="SourceGraphic" in2="effect1_dropShadow_14_8" result="shape"/>
</filter>
<filter id="filter2_d_14_8" x="275.983" y="21.9835" width="228.288" height="266.808" filterUnits="userSpaceOnUse" color-interpolation-filters="sRGB">
<feFlood flood-opacity="0" result="BackgroundImageFix"/>
<feColorMatrix in="SourceAlpha" type="matrix" values="0 0 0 0 0 0 0 0 0 0 0 0 0 0 0 0 0 0 127 0" result="hardAlpha"/>
<feMorphology radius="5" operator="dilate" in="SourceAlpha" result="effect1_dropShadow_14_8"/>
<feOffset dy="5"/>
<feGaussianBlur stdDeviation="3"/>
<feComposite in2="hardAlpha" operator="out"/>
<feColorMatrix type="matrix" values="0 0 0 0 0 0 0 0 0 0 0 0 0 0 0 0 0 0 0.25 0"/>
<feBlend mode="normal" in2="BackgroundImageFix" result="effect1_dropShadow_14_8"/>
<feBlend mode="normal" in="SourceGraphic" in2="effect1_dropShadow_14_8" result="shape"/>
</filter>
<filter id="filter3_i_14_8" x="291.983" y="32.9835" width="195.309" height="238.033" filterUnits="userSpaceOnUse" color-interpolation-filters="sRGB">
<feFlood flood-opacity="0" result="BackgroundImageFix"/>
<feBlend mode="normal" in="SourceGraphic" in2="BackgroundImageFix" result="shape"/>
<feColorMatrix in="SourceAlpha" type="matrix" values="0 0 0 0 0 0 0 0 0 0 0 0 0 0 0 0 0 0 127 0" result="hardAlpha"/>
<feOffset dy="4"/>
<feGaussianBlur stdDeviation="2"/>
<feComposite in2="hardAlpha" operator="arithmetic" k2="-1" k3="1"/>
<feColorMatrix type="matrix" values="0 0 0 0 1 0 0 0 0 1 0 0 0 0 1 0 0 0 0.25 0"/>
<feBlend mode="normal" in2="shape" result="effect1_innerShadow_14_8"/>
</filter>
<filter id="filter4_ddi_14_8" x="318.322" y="77.2495" width="142.72" height="153.006" filterUnits="userSpaceOnUse" color-interpolation-filters="sRGB">
<feFlood flood-opacity="0" result="BackgroundImageFix"/>
<feColorMatrix in="SourceAlpha" type="matrix" values="0 0 0 0 0 0 0 0 0 0 0 0 0 0 0 0 0 0 127 0" result="hardAlpha"/>
<feOffset dy="4"/>
<feGaussianBlur stdDeviation="2"/>
<feComposite in2="hardAlpha" operator="out"/>
<feColorMatrix type="matrix" values="0 0 0 0 0 0 0 0 0 0 0 0 0 0 0 0 0 0 0.25 0"/>
<feBlend mode="normal" in2="BackgroundImageFix" result="effect1_dropShadow_14_8"/>
<feColorMatrix in="SourceAlpha" type="matrix" values="0 0 0 0 0 0 0 0 0 0 0 0 0 0 0 0 0 0 127 0" result="hardAlpha"/>
<feOffset dy="4"/>
<feGaussianBlur stdDeviation="2"/>
<feComposite in2="hardAlpha" operator="out"/>
<feColorMatrix type="matrix" values="0 0 0 0 0 0 0 0 0 0 0 0 0 0 0 0 0 0 0.25 0"/>
<feBlend mode="normal" in2="effect1_dropShadow_14_8" result="effect2_dropShadow_14_8"/>
<feBlend mode="normal" in="SourceGraphic" in2="effect2_dropShadow_14_8" result="shape"/>
<feColorMatrix in="SourceAlpha" type="matrix" values="0 0 0 0 0 0 0 0 0 0 0 0 0 0 0 0 0 0 127 0" result="hardAlpha"/>
<feOffset dy="4"/>
<feGaussianBlur stdDeviation="2"/>
<feComposite in2="hardAlpha" operator="arithmetic" k2="-1" k3="1"/>
<feColorMatrix type="matrix" values="0 0 0 0 0 0 0 0 0 0 0 0 0 0 0 0 0 0 0.25 0"/>
<feBlend mode="normal" in2="shape" result="effect3_innerShadow_14_8"/>
</filter>
<clipPath id="clip0_14_8">
<rect width="500" height="300" fill="white"/>
</clipPath>
</defs>
</svg>
